Coordinates
version=1
nRows=8
nColumns=34
inDegrees=yes

Units are S.I. units (second, meters, Newtons, ...)
If the header above contains a line with 'inDegrees', this indicates whether rotational values are in degrees (yes) or radians (no).

endheader
time	pelvis_tilt	pelvis_list	pelvis_rotation	pelvis_tx	pelvis_ty	pelvis_tz	hip_flexion_r	hip_adduction_r	hip_rotation_r	knee_angle_r	ankle_angle_r	subtalar_angle_r	mtp_angle_r	hip_flexion_l	hip_adduction_l	hip_rotation_l	knee_angle_l	ankle_angle_l	subtalar_angle_l	mtp_angle_l	lumbar_extension	lumbar_bending	lumbar_rotation	arm_flex_r	arm_add_r	arm_rot_r	elbow_flex_r	pro_sup_r	arm_flex_l	arm_add_l	arm_rot_l	elbow_flex_l	pro_sup_l
     12.71666670	      2.78737933	     -8.16039399	   -176.10386039	      0.09583836	      1.10384342	      0.14053371	     30.68619224	     -6.12239073	     -5.91809662	     11.65772453	    -10.91238633	      5.90630272	      0.00000000	    -15.16261949	      9.58581614	      1.09769574	     39.37200694	    -18.93797601	    -18.55497115	      0.00000000	    -12.07926104	    -11.49239339	    -22.61531058	    -25.19798065	    -11.36215703	     -1.60518631	    105.13876662	     95.66216988	     20.97525893	    -26.58099666	     27.00064503	    104.92517777	     75.12243907
     12.72500000	      2.27993644	     -8.17655144	   -175.95830524	      0.09490796	      1.10233008	      0.14073387	     29.81409178	     -6.10994880	     -6.25704568	     10.45326524	    -11.66363722	      6.58959358	      0.00000000	    -14.90227707	      9.37875104	      1.22378956	     43.55408058	    -18.68822233	    -20.33433701	      0.00000000	    -12.36103076	    -11.33936432	    -22.49472691	    -24.90692937	    -11.53347675	     -2.10263419	    105.58975384	     95.81701358	     21.15526028	    -26.75706492	     27.84856776	    104.50018904	     74.93677164
     12.73333330	      1.55888487	     -8.28573668	   -176.04068767	      0.09446119	      1.10024899	      0.14125571	     28.88635768	     -6.20446708	     -6.60919185	     10.11288734	    -11.75904061	      7.42368197	      0.00000000	    -14.75658455	      9.47997560	      1.50811757	     47.78865135	    -19.24211757	    -22.62636224	      0.00000000	    -13.15888754	    -11.20746850	    -21.67968845	    -24.71491662	    -11.54302050	     -2.89186453	    106.25597629	     96.24586955	     22.07204762	    -26.77395814	     29.36148805	    103.81506677	     74.46408111
     12.74166670	      1.15082829	     -8.14084042	   -176.03052943	      0.09374802	      1.09731867	      0.14173789	     28.22000977	     -6.06699829	     -6.85093856	     10.23279028	    -12.15447774	      7.16103578	      0.00000000	    -14.03327574	      9.25110977	      1.60127042	     52.40524127	    -19.18920736	    -23.65835957	      0.00000000	    -13.55428792	    -10.71678441	    -21.26787738	    -24.15246547	    -11.82797700	     -3.25086414	    106.46570404	     96.34843654	     21.79687891	    -26.81326418	     29.94569878	    103.62273940	     74.37645215
     12.75000000	      0.73350662	     -8.00483009	   -176.08378940	      0.09351790	      1.09329499	      0.14215784	     27.57062220	     -5.95089148	     -7.12106600	     10.94694492	    -12.50183096	      6.69584535	      0.00000000	    -13.18203975	      9.07469897	      1.72463653	     57.24301775	    -19.56287144	    -24.67545613	      0.00000000	    -14.12170359	    -10.16821084	    -20.69386070	    -23.53090084	    -12.15126543	     -3.51019193	    106.75729048	     96.46496890	     21.33490718	    -26.89024897	     30.63428225	    103.74010415	     74.33624180
     12.75833330	      0.30460966	     -7.89198323	   -176.22987940	      0.09336557	      1.08845302	      0.14238792	     26.88458132	     -5.82302558	     -7.38552004	     12.09223272	    -12.68476202	      5.88089775	      0.00000000	    -12.17093102	      8.90660449	      1.67057673	     62.15978222	    -20.45568403	    -26.14317858	      0.00000000	    -14.75965603	     -9.63757506	    -19.90184068	    -22.93808085	    -12.45291700	     -3.74048428	    107.22184280	     96.76311730	     20.55718591	    -27.15772415	     31.51580020	    104.33675405	     74.31537205
     12.76666670	     -0.05801913	     -7.65575108	   -176.43334810	      0.09348580	      1.08194795	      0.14251383	     26.20964661	     -5.55149779	     -7.84251327	     13.52367535	    -12.62151047	      5.04011709	      0.00000000	    -10.94006913	      8.56562025	      1.50214089	     67.27613964	    -20.73511434	    -26.77638968	      0.00000000	    -15.27831601	     -8.92626261	    -18.91135780	    -22.29697959	    -12.87096712	     -3.91190925	    107.45531415	     96.91556651	     19.27540959	    -27.41723972	     32.34239578	    105.03051966	     74.40220545
     12.77500000	     -0.31626742	     -7.38197778	   -176.74533457	      0.09387967	      1.07424527	      0.14253749	     25.65863096	     -5.19488654	     -8.20602868	     15.28273422	    -12.03841300	      3.89996250	      0.00000000	     -9.43086584	      8.16345241	      1.12559024	     72.44250696	    -20.92600886	    -27.23418096	      0.00000000	    -15.75605093	     -8.18063060	    -17.77069139	    -21.57393211	    -13.40208673	     -3.97896883	    107.90329396	     97.09455441	     17.59550719	    -27.94494780	     33.22444310	    106.07888489	     74.59872406
